<svg xmlns="http://www.w3.org/2000/svg" viewBox="0 0 86.7 99"><path fill="#1FAE52" d="M84.8 52.7L49 73.3a1.2 1.2 0 0 1-1.9-.6L37 55.2l-.1-.4c0-.4.3-.8.7-.8h11a.7.7 0 0 1 .5 1.2l-.3.3a3.5 3.5 0 0 0 5 5l8.7-8.8a3 3 0 0 0 0-4.4l-8.7-8.8a3.5 3.5 0 1 0-4.7 5.3l.2.5c0 .4-.3.7-.6.7H37.5a.8.8 0 0 1-.5-1.1l10.3-17.6a1.2 1.2 0 0 1 1.8-.6l35.7 20.6a3.6 3.6 0 0 1 0 6.4zM1.8.5C.6 1.2 0 2.5 0 3.8V45c0 .2 0 .5.2.7.3.4.8.7 1.2.6l20.4.1h.4c.3-.3.4-.7.3-1L17 35.7a.7.7 0 0 0-1.2.2l-.1.5a3.5 3.5 0 0 1-6.8-1.9L12 22.6a3 3 0 0 1 3.8-2.2l12 3.2a3.5 3.5 0 1 1-2.2 6.6.7.7 0 0 0-.9 1l5.6 9.5a.8.8 0 0 0 1.3 0l10-17.6a1.2 1.2 0 0 0-.4-1.9L5.7.6A3.6 3.6 0 0 0 1.8.5z"/><path d="M0 95.2V54a1.2 1.2 0 0 1 1.5-1.3l20.2-.1h.5c.4.3.5.8.3 1.2L17 63.3a.7.7 0 0 1-1.3-.3v-.3a3.5 3.5 0 1 0-6.8 1.8l3.2 12a3 3 0 0 0 3.8 2.1l12-3.2a3.5 3.5 0 1 0-2.3-6.6h-.5a.7.7 0 0 1-.3-1l5.6-9.7a.8.8 0 0 1 1.2.1L41.7 76a1.2 1.2 0 0 1-.4 1.8L5.6 98.4A3.6 3.6 0 0 1 0 95.2z"/></svg>