<svg xmlns="http://www.w3.org/2000/svg" viewBox="0 0 378.4 99"><path fill="#1FAE52" d="M84.8 52.7L49 73.3a1.2 1.2 0 0 1-1.9-.6L37 55.2l-.1-.4c0-.4.3-.8.7-.8h11a.7.7 0 0 1 .5 1.2l-.3.3a3.5 3.5 0 1 0 5 5l8.7-8.8a3 3 0 0 0 0-4.4l-8.7-8.8a3.5 3.5 0 1 0-4.7 5.3.7.7 0 0 1-.4 1.2H37.5a.8.8 0 0 1-.5-1.1l10.3-17.6a1.2 1.2 0 0 1 1.8-.6l35.7 20.6a3.6 3.6 0 0 1 0 6.4zM1.8.5C.6 1.2 0 2.5 0 3.8V45c0 .2 0 .5.2.7.3.4.8.7 1.2.6l20.4.1h.4c.3-.3.4-.7.3-1L17 35.7a.7.7 0 0 0-1.2.2l-.1.5a3.5 3.5 0 0 1-6.8-1.9L12 22.6a3 3 0 0 1 3.8-2.2l12 3.2a3.5 3.5 0 1 1-2.2 6.6.7.7 0 0 0-.9 1l5.6 9.5a.8.8 0 0 0 1.3 0l10-17.6a1.2 1.2 0 0 0-.4-1.9L5.7.6A3.6 3.6 0 0 0 1.8.5z"/><path d="M0 95.2V54a1.2 1.2 0 0 1 1.5-1.3l20.2-.1h.5c.4.3.5.8.3 1.2L17 63.3a.7.7 0 0 1-1.3-.3v-.3a3.5 3.5 0 1 0-6.8 1.8l3.2 12a3 3 0 0 0 3.8 2.1l12-3.2a3.5 3.5 0 1 0-2.3-6.6h-.5a.7.7 0 0 1-.3-1l5.6-9.7a.8.8 0 0 1 1.2.1L41.7 76a1.2 1.2 0 0 1-.4 1.9L5.6 98.4A3.6 3.6 0 0 1 0 95.2zm146-67.1c2.4.8 4.6 1.7 6.7 2.7l3.6-8.8a37.4 37.4 0 0 0-17.5-4.2c-6 0-11.2 1.4-15.6 4A26 26 0 0 0 113 33.5c-2.4 5-3.5 10.9-3.5 17.6 0 10.7 2.4 19 7.2 24.7 4.9 5.8 11.8 8.6 20.8 8.6 6.2 0 11.7-1 16.5-2.9v-9c-2.6.8-5.2 1.5-7.6 2-2.5.6-5 .9-7.6.9-6 0-10.7-2-13.9-6.1-3.2-4.1-4.8-10.1-4.8-18 0-7.7 1.7-13.6 5-18S133 27 138.8 27c2.5 0 5 .4 7.3 1.2zm54.4 55.4v-33c0-5.8-1.5-10-4.5-12.8-3-2.7-7.6-4-13.5-4a36.5 36.5 0 0 0-16.8 4.2l3.2 7.4c2-1 4.1-1.8 6.3-2.6 2.2-.7 4.5-1 6.9-1 3 0 5 .7 6.5 2.2s2 4 2 7v2.7l-8 .2c-7.3.3-12.8 1.7-16.3 4.3-3.6 2.5-5.4 6.3-5.4 11.4a15 15 0 0 0 3.9 11c2.5 2.6 6.1 4 10.7 4 3.6 0 6.5-.6 8.8-1.7 2.3-1 4.5-3.1 6.8-6h.3l2 6.7h7zM173 74.7a6.7 6.7 0 0 1-2-5.1c0-3 1.2-5.3 3.3-6.7 2.1-1.5 5.5-2.3 10.2-2.5l6-.3v4.3c0 3.8-1.1 6.8-3.3 8.9a12 12 0 0 1-8.7 3.1c-2.5 0-4.3-.5-5.5-1.7zm44.8-60.1h-10v69h10v-69zm18.7 0h-9.9v69h10v-69zm11.2 11.1c1 1 2.3 1.5 4.1 1.5 1.8 0 3.1-.5 4-1.5s1.5-2.4 1.5-4.2c0-1.8-.4-3.3-1.4-4.3-1-1-2.3-1.5-4-1.5-1.9 0-3.3.5-4.2 1.5-1 1-1.5 2.5-1.5 4.3 0 1.8.5 3.2 1.5 4.2zm9 8.8h-10v49h10v-49zm40.4 29c-.9-1.7-2.2-3.2-4-4.5a40.1 40.1 0 0 0-8.3-4.3 44 44 0 0 1-9-4.4c-1.3-1-2-2.4-2-3.9 0-3.1 2.6-4.7 7.9-4.7 3.4 0 7.6 1 12.7 3.3l3.2-7.9c-5-2.3-10.1-3.5-15.6-3.5-5.6 0-10 1.2-13.2 3.5A11.3 11.3 0 0 0 264 47c0 3.5 1 6.3 2.9 8.5s5.5 4.4 10.9 6.6a56 56 0 0 1 6.4 3 12 12 0 0 1 3.4 2.5c.6.9 1 1.9 1 3.1 0 4-3 5.9-9.2 5.9-4.7 0-9.8-1.4-15.3-4v9c3.8 2 8.8 3 15 3a23 23 0 0 0 14.2-3.9 13 13 0 0 0 5-11c0-2.4-.4-4.4-1.2-6.1zm22.5 10.7c-1.2-1.2-1.8-3-1.8-5.6V42.4H331v-7.9h-13.3V23.6h-6.1L308.3 34l-6.9 3.8v4.6h6.4v26.4c0 10.4 4.7 15.6 14.1 15.6a27.9 27.9 0 0 0 9.6-1.7v-7.9a23 23 0 0 1-7.2 1.2c-2 0-3.5-.6-4.7-1.8zm52.8-33.7a20 20 0 0 0-16-6.9c-7 0-12.5 2.3-16.4 6.7S334.2 51 334.2 59c0 5.2.9 9.6 2.7 13.5a20.1 20.1 0 0 0 19.3 12c7 0 12.4-2.2 16.3-6.7 3.9-4.5 5.9-10.8 5.9-18.8 0-7.7-2-13.9-6-18.4zm-25.2 6c1.9-3 4.9-4.4 9-4.4 8 0 12 5.6 12 16.8 0 11.4-4 17-11.9 17-8 0-12-5.6-12-17 0-5.4 1-9.5 2.9-12.4z"/></svg>