<?xml version="1.0" encoding="utf-8"?>
<!-- Generator: Adobe Illustrator 15.1.0, SVG Export Plug-In . SVG Version: 6.00 Build 0)  -->
<!DOCTYPE svg PUBLIC "-//W3C//DTD SVG 1.1//EN" "http://www.w3.org/Graphics/SVG/1.1/DTD/svg11.dtd">
<svg version="1.1" id="Layer_1" xmlns="http://www.w3.org/2000/svg" xmlns:xlink="http://www.w3.org/1999/xlink" x="0px" y="0px"
	 width="86.726px" height="99px" viewBox="0 0 86.726 99" enable-background="new 0 0 86.726 99" xml:space="preserve">
<path fill-rule="evenodd" clip-rule="evenodd" fill="#1FAE52" d="M84.786,52.729l0.001,0.003L49.083,73.313l-0.013-0.022
	c-0.196,0.132-0.432,0.209-0.686,0.209c-0.525,0-0.972-0.33-1.148-0.792L37.014,55.242c-0.092-0.128-0.147-0.285-0.147-0.455
	c0-0.432,0.351-0.783,0.782-0.783c0.256,0,11.046-0.016,11.046-0.016c0.359,0.03,0.642,0.33,0.641,0.697
	c0,0.222-0.104,0.42-0.265,0.548c-0.098,0.079-0.194,0.162-0.286,0.253c-1.371,1.372-1.371,3.595,0,4.967
	c1.372,1.372,3.596,1.372,4.967,0c1.25-1.25,7.515-7.585,8.71-8.78c1.205-1.206,1.205-3.161,0-4.366
	c-1.188-1.188-7.481-7.551-8.71-8.78c-1.372-1.372-3.595-1.372-4.967,0c-1.371,1.372-1.371,3.595,0,4.967
	c0.103,0.102,0.21,0.196,0.322,0.283c0.14,0.128,0.228,0.311,0.229,0.516c0,0.38-0.304,0.688-0.682,0.698H37.49
	c-0.355-0.074-0.623-0.389-0.623-0.766c0-0.129,0.032-0.251,0.088-0.358l10.297-17.605c0.187-0.44,0.624-0.749,1.132-0.749
	c0.254,0,0.49,0.077,0.686,0.209l0.013-0.022l35.703,20.581l-0.001,0.003c1.153,0.612,1.94,1.825,1.94,3.223
	C86.726,50.904,85.939,52.117,84.786,52.729z"/>
<path fill-rule="evenodd" clip-rule="evenodd" fill="#1FAE52" d="M1.824,0.489C0.614,1.187-0.043,2.475,0.003,3.78H0l0.028,41.21
	h0.026c-0.017,0.236,0.035,0.479,0.162,0.699c0.254,0.44,0.74,0.664,1.215,0.606l20.395,0.116c0.121-0.006,0.242-0.039,0.354-0.104
	c0.327-0.189,0.466-0.578,0.352-0.922l-5.583-9.67c-0.198-0.322-0.617-0.431-0.946-0.241c-0.177,0.103-0.292,0.271-0.333,0.456
	c-0.02,0.14-0.047,0.28-0.084,0.42c-0.502,1.874-2.428,2.985-4.302,2.483s-2.985-2.428-2.483-4.301
	c0.449-1.679,2.813-10.311,3.249-11.933c0.441-1.647,2.134-2.625,3.781-2.183c1.633,0.438,10.251,2.695,11.959,3.153
	c1.874,0.502,2.985,2.428,2.483,4.301s-2.428,2.985-4.302,2.483c-0.124-0.033-0.244-0.075-0.361-0.12
	c-0.191-0.076-0.415-0.067-0.607,0.044c-0.317,0.183-0.437,0.578-0.283,0.904c0,0,5.409,9.336,5.538,9.558
	c0.216,0.374,0.694,0.502,1.068,0.286c0.147-0.085,0.256-0.211,0.321-0.354l10.014-17.585c0.313-0.384,0.375-0.936,0.112-1.39
	c-0.127-0.22-0.312-0.386-0.524-0.49l0.013-0.022L5.586,0.555L5.585,0.558C4.478-0.135,3.034-0.21,1.824,0.489z"/>
<path fill-rule="evenodd" clip-rule="evenodd" d="M0.027,95.22H0.023l0.028-41.211l0.026,0c-0.016-0.236,0.035-0.479,0.162-0.699
	c0.263-0.455,0.771-0.676,1.26-0.598l20.237-0.12c0.158-0.016,0.32,0.016,0.467,0.101c0.375,0.216,0.502,0.694,0.287,1.068
	c-0.128,0.223-5.509,9.574-5.509,9.574c-0.206,0.296-0.606,0.391-0.924,0.208c-0.192-0.111-0.312-0.3-0.342-0.504
	c-0.019-0.125-0.043-0.249-0.077-0.373c-0.502-1.874-2.428-2.986-4.301-2.483s-2.985,2.428-2.483,4.301
	c0.458,1.708,2.811,10.301,3.249,11.934c0.441,1.646,2.134,2.624,3.781,2.183c1.623-0.435,10.28-2.703,11.958-3.153
	c1.874-0.501,2.986-2.428,2.484-4.301c-0.502-1.874-2.428-2.985-4.301-2.483c-0.14,0.037-0.275,0.083-0.406,0.136
	c-0.181,0.058-0.384,0.043-0.561-0.06c-0.33-0.19-0.445-0.607-0.265-0.939l5.583-9.67c0.242-0.271,0.648-0.345,0.975-0.156
	c0.112,0.064,0.202,0.153,0.267,0.255l10.098,17.721c0.287,0.382,0.336,0.914,0.082,1.354c-0.127,0.22-0.312,0.386-0.524,0.49
	l0.013,0.022L5.61,98.445l-0.002-0.003c-1.107,0.693-2.551,0.768-3.761,0.069C0.637,97.813-0.02,96.525,0.027,95.22z"/>
</svg>
