<?xml version="1.0" encoding="utf-8"?>
<!-- Generator: Adobe Illustrator 15.1.0, SVG Export Plug-In . SVG Version: 6.00 Build 0)  -->
<!DOCTYPE svg PUBLIC "-//W3C//DTD SVG 1.1//EN" "http://www.w3.org/Graphics/SVG/1.1/DTD/svg11.dtd">
<svg version="1.1" id="Layer_1" xmlns="http://www.w3.org/2000/svg" xmlns:xlink="http://www.w3.org/1999/xlink" x="0px" y="0px"
	 width="1072.224px" height="280.554px" viewBox="0 0 1072.224 280.554" enable-background="new 0 0 1072.224 280.554"
	 xml:space="preserve">
<g>
	<path fill-rule="evenodd" clip-rule="evenodd" fill="#1FAE52" d="M245.77,140.296c0-3.96-2.229-7.397-5.499-9.132l0.004-0.008
		L139.097,72.831l-0.038,0.064c-0.555-0.374-1.224-0.593-1.944-0.593c-1.44,0-2.677,0.875-3.207,2.122l-29.183,49.891
		c-0.157,0.304-0.249,0.649-0.248,1.016c0,1.069,0.757,1.961,1.764,2.17h31.643c1.071-0.027,1.931-0.902,1.931-1.979
		c0-0.581-0.251-1.1-0.648-1.462c-0.315-0.247-0.621-0.513-0.911-0.803c-3.887-3.887-3.887-10.188,0-14.075
		c3.887-3.887,10.189-3.887,14.076,0c3.482,3.483,21.317,21.515,24.683,24.881c3.417,3.417,3.417,8.957,0,12.373
		c-3.386,3.386-21.14,21.338-24.683,24.881c-3.887,3.887-10.189,3.887-14.076,0c-3.887-3.887-3.887-10.189,0-14.075
		c0.258-0.258,0.53-0.493,0.808-0.717c0.457-0.363,0.751-0.924,0.751-1.554c0-1.04-0.799-1.891-1.817-1.975
		c0,0-30.577,0.046-31.304,0.046c-1.224,0-2.217,0.993-2.217,2.217c0,0.481,0.155,0.926,0.416,1.29l28.969,49.495
		c0.5,1.312,1.766,2.245,3.253,2.245c0.72,0,1.389-0.219,1.944-0.593l0.037,0.064l101.18-58.324l-0.005-0.009
		C243.541,147.692,245.77,144.255,245.77,140.296z"/>
	<path fill-rule="evenodd" clip-rule="evenodd" fill="#1FAE52" d="M5.169,1.385C1.74,3.365-0.123,7.014,0.01,10.713H0l0.08,116.786
		l0.074,0c-0.046,0.668,0.099,1.357,0.459,1.98c0.72,1.248,2.096,1.881,3.441,1.717l57.798,0.328
		c0.343-0.016,0.687-0.11,1.004-0.293c0.926-0.535,1.32-1.636,0.998-2.613l-15.822-27.404c-0.56-0.914-1.747-1.221-2.68-0.682
		c-0.502,0.29-0.827,0.768-0.942,1.292c-0.056,0.396-0.134,0.793-0.24,1.189c-1.422,5.31-6.88,8.46-12.189,7.038
		c-5.31-1.422-8.461-6.88-7.038-12.19c1.274-4.757,7.973-29.218,9.206-33.817c1.25-4.667,6.048-7.438,10.715-6.187
		c4.626,1.239,29.049,7.639,33.89,8.936c5.309,1.423,8.46,6.88,7.038,12.19s-6.88,8.46-12.19,7.038
		c-0.352-0.094-0.691-0.212-1.024-0.341c-0.543-0.214-1.176-0.189-1.722,0.126c-0.9,0.519-1.237,1.638-0.801,2.561
		c0,0,15.328,26.457,15.692,27.086c0.612,1.061,1.968,1.424,3.028,0.811c0.417-0.24,0.724-0.597,0.908-1.004l28.379-49.836
		c0.886-1.089,1.062-2.652,0.318-3.939c-0.36-0.623-0.884-1.093-1.486-1.388l0.038-0.064L15.832,1.572l-0.005,0.008
		C12.689-0.384,8.598-0.595,5.169,1.385z"/>
	<path fill-rule="evenodd" clip-rule="evenodd" d="M5.235,279.168c3.429,1.98,7.521,1.769,10.658-0.196l0.005,0.008l101.1-58.461
		l-0.037-0.064c0.602-0.294,1.125-0.765,1.485-1.388c0.721-1.248,0.581-2.755-0.233-3.838l-28.616-50.218
		c-0.185-0.289-0.438-0.54-0.756-0.723c-0.926-0.535-2.077-0.325-2.761,0.442l-15.822,27.404c-0.512,0.941-0.184,2.124,0.749,2.663
		c0.503,0.29,1.078,0.333,1.591,0.169c0.372-0.149,0.754-0.281,1.15-0.387c5.309-1.423,10.767,1.728,12.189,7.038
		s-1.729,10.767-7.038,12.19c-4.757,1.274-29.291,7.704-33.889,8.936c-4.667,1.25-9.465-1.52-10.715-6.187
		c-1.24-4.626-7.91-28.977-9.206-33.817c-1.423-5.31,1.728-10.767,7.037-12.19c5.31-1.423,10.767,1.728,12.19,7.038
		c0.094,0.353,0.162,0.705,0.217,1.057c0.086,0.578,0.425,1.114,0.97,1.429c0.9,0.52,2.037,0.252,2.619-0.587
		c0,0,15.248-26.503,15.611-27.133c0.612-1.06,0.25-2.416-0.812-3.028c-0.417-0.241-0.878-0.329-1.324-0.285l-57.349,0.341
		c-1.385-0.222-2.827,0.407-3.57,1.695c-0.361,0.623-0.506,1.312-0.459,1.98l-0.074-0.001L0.066,269.841l0.009,0
		C-0.057,273.541,1.806,277.188,5.235,279.168z"/>
</g>
<g>
	<path d="M393.25,76.215c-16.43,0-29.35,6.114-38.76,18.339c-9.412,12.228-14.116,29.101-14.116,50.621
		c0,22.527,4.525,39.567,13.578,51.124c9.051,11.556,22.15,17.334,39.298,17.334c7.417,0,14.595-0.773,21.533-2.324
		c6.938-1.549,14.155-3.537,21.653-5.966v25.75c-13.718,5.444-29.27,8.165-46.655,8.165c-25.601,0-45.261-8.143-58.977-24.431
		c-13.718-16.286-20.576-39.587-20.576-69.902c0-19.093,3.329-35.799,9.989-50.118c6.658-14.32,16.289-25.289,28.891-32.91
		c12.6-7.619,27.395-11.431,44.382-11.431c17.864,0,34.373,3.937,49.526,11.808l-10.288,24.996
		c-5.903-2.93-12.142-5.505-18.722-7.725C407.426,77.326,400.506,76.215,393.25,76.215z"/>
	<path d="M547.786,236.745l-5.622-19.344h-0.957c-6.382,8.459-12.801,14.215-19.261,17.271c-6.46,3.056-14.755,4.585-24.883,4.585
		c-13,0-23.148-3.684-30.445-11.054c-7.298-7.368-10.946-17.793-10.946-31.277c0-14.32,5.063-25.122,15.193-32.408
		c10.127-7.285,25.56-11.262,46.296-11.933l22.849-0.753v-7.411c0-8.875-1.974-15.513-5.921-19.909
		c-3.948-4.396-10.069-6.594-18.363-6.594c-6.78,0-13.278,1.048-19.5,3.14c-6.221,2.094-12.202,4.565-17.944,7.411l-9.092-21.103
		c7.178-3.935,15.032-6.928,23.567-8.981c8.532-2.051,16.587-3.078,24.165-3.078c16.826,0,29.527,3.853,38.102,11.557
		c8.572,7.705,12.86,19.805,12.86,36.301v93.58H547.786z M505.916,216.647c10.207,0,18.402-2.993,24.584-8.981
		c6.18-5.986,9.271-14.382,9.271-25.185v-12.059l-16.988,0.754c-13.239,0.502-22.869,2.826-28.89,6.971
		c-6.023,4.145-9.032,10.488-9.032,19.03c0,6.198,1.753,10.991,5.264,14.382C493.633,214.952,498.897,216.647,505.916,216.647z"/>
	<path d="M617.109,236.745h-28.112V41.295h28.112V236.745z"/>
	<path d="M670.293,236.745H642.18V41.295h28.113V236.745z"/>
	<path d="M697.688,61.016c0-5.275,1.376-9.336,4.127-12.184c2.752-2.846,6.679-4.271,11.784-4.271c4.943,0,8.792,1.425,11.544,4.271
		c2.751,2.848,4.127,6.909,4.127,12.184c0,5.024-1.376,8.981-4.127,11.87c-2.752,2.889-6.601,4.333-11.544,4.333
		c-5.105,0-9.032-1.444-11.784-4.333C699.064,69.998,697.688,66.041,697.688,61.016z M727.477,236.745h-28.113V97.82h28.113V236.745
		z"/>
	<path d="M845.431,197.178c0,13.566-4.706,23.972-14.116,31.214c-9.412,7.244-22.891,10.865-40.435,10.865
		c-17.626,0-31.782-2.805-42.468-8.416v-25.499c15.551,7.536,30.026,11.305,43.425,11.305c17.306,0,25.96-5.484,25.96-16.455
		c0-3.517-0.957-6.447-2.871-8.792c-1.914-2.344-5.066-4.773-9.451-7.286c-4.387-2.512-10.488-5.358-18.303-8.542
		c-15.234-6.196-25.541-12.392-30.925-18.59c-5.383-6.196-8.075-14.235-8.075-24.117c0-11.89,4.564-21.122,13.698-27.697
		c9.131-6.573,21.552-9.861,37.265-9.861c15.551,0,30.266,3.309,44.143,9.923l-9.092,22.233
		c-14.277-6.196-26.279-9.295-36.008-9.295c-14.834,0-22.252,4.439-22.252,13.314c0,4.355,1.934,8.039,5.803,11.054
		c3.867,3.015,12.301,7.16,25.301,12.436c10.926,4.439,18.861,8.5,23.807,12.185c4.943,3.686,8.613,7.935,11.006,12.749
		C844.234,184.723,845.431,190.479,845.431,197.178z"/>
	<path d="M918.979,215.392c6.857,0,13.717-1.131,20.576-3.392v22.233c-3.11,1.425-7.118,2.616-12.022,3.58
		c-4.905,0.961-9.989,1.444-15.253,1.444c-26.639,0-39.956-14.738-39.956-44.215v-74.864H854.26v-13.063l19.379-10.803l9.57-29.393
		h17.347v30.9h37.683v22.358h-37.683v74.361c0,7.119,1.693,12.373,5.084,15.764C909.029,213.696,913.476,215.392,918.979,215.392z"
		/>
	<path d="M1072.224,167.031c0,22.694-5.544,40.405-16.628,53.133c-11.087,12.73-26.52,19.093-46.297,19.093
		c-12.363,0-23.289-2.93-32.778-8.792c-9.491-5.861-16.789-14.277-21.892-25.248c-5.105-10.969-7.656-23.697-7.656-38.186
		c0-22.525,5.502-40.111,16.508-52.756c11.006-12.644,26.518-18.967,46.536-18.967c19.141,0,34.292,6.469,45.459,19.407
		C1066.641,127.652,1072.224,145.093,1072.224,167.031z M975.922,167.031c0,32.074,11.285,48.109,33.855,48.109
		c22.33,0,33.496-16.035,33.496-48.109c0-31.736-11.245-47.606-33.735-47.606c-11.804,0-20.357,4.104-25.66,12.31
		C978.572,139.943,975.922,151.707,975.922,167.031z"/>
</g>
</svg>
