<?xml version="1.0" encoding="utf-8"?>
<!-- Generator: Adobe Illustrator 15.1.0, SVG Export Plug-In . SVG Version: 6.00 Build 0)  -->
<!DOCTYPE svg PUBLIC "-//W3C//DTD SVG 1.1//EN" "http://www.w3.org/Graphics/SVG/1.1/DTD/svg11.dtd">
<svg version="1.1" id="Layer_1" xmlns="http://www.w3.org/2000/svg" xmlns:xlink="http://www.w3.org/1999/xlink" x="0px" y="0px"
	 width="171.96px" height="197.828px" viewBox="0 0 171.96 197.828" enable-background="new 0 0 171.96 197.828"
	 xml:space="preserve">
<path fill="#148148" d="M170.733,90.265L14.902,0.294c-0.927-0.482-1.673-0.377-2.875,0.35l0.036-0.032L0.968,7.018
	C0.243,7.523,0.044,8.287,0,8.64v179.781l0.008-0.049c-0.034,1.217,0.266,1.873,1.229,2.479l11.607,6.702
	c0.836,0.361,1.289,0.307,2.093-0.137l155.891-89.909c0.838-0.533,1.128-1.21,1.132-2.514V92.212
	C171.931,91.827,171.655,90.751,170.733,90.265z M105.84,83.72l26.405,15.246l-26.408,15.246L105.84,83.72z M26.761,129.23
	l26.351,15.205l-26.351,15.214V129.23z M53.113,53.277L26.783,68.5V38.076L53.113,53.277z M27.704,98.859l51.354-29.65v59.3
	L27.704,98.859z"/>
<path opacity="0.2" fill="#000" d="M66.124,136.923l-12.955,7.545l-39.413-22.743l-0.119,76.039c-0.304,0.006-0.483-0.076-0.793-0.211
	l-11.607-6.701c-0.963-0.605-1.263-1.262-1.229-2.479L0,188.422V98.747L66.124,136.923z M171.622,91.248l-65.787,37.901
	l0.005-45.478l-13.028-7.473l-0.023,76.294l78.04-44.985c0.838-0.533,1.128-1.21,1.132-2.515v-12.78
	C171.929,91.791,171.797,91.549,171.622,91.248z M14.902,0.294c-0.927-0.482-1.673-0.377-2.875,0.35l0.036-0.032L0.968,7.018
	c-0.299,0.215-0.524,0.447-0.682,0.72l65.841,38.014L26.754,68.517l0.029,14.988L92.907,45.33L14.902,0.294z"/>
<path opacity="0.2" fill="#FFF" d="M171.698,91.228l-65.863,37.921l0.002-14.937l39.433-22.767L79.147,53.271l13.753-7.941
	l77.832,44.936C171.196,90.554,171.505,90.86,171.698,91.228z M0.287,7.738C0.139,7.995,0.044,8.287,0,8.64v90.106l13.755,7.976
	l0-76.17l39.447,22.727l12.926-7.528L0.287,7.738z M26.668,174.783l0.092-45.553l-13.005-7.505l-0.11,76.103
	c0.37-0.006,0.756-0.121,1.199-0.338l77.949-45.001v-15.882L26.668,174.783z"/>
</svg>
