<?xml version="1.0" encoding="utf-8"?>
<!-- Generator: Adobe Illustrator 15.1.0, SVG Export Plug-In . SVG Version: 6.00 Build 0)  -->
<!DOCTYPE svg PUBLIC "-//W3C//DTD SVG 1.1//EN" "http://www.w3.org/Graphics/SVG/1.1/DTD/svg11.dtd">
<svg version="1.1" id="Layer_1" xmlns="http://www.w3.org/2000/svg" xmlns:xlink="http://www.w3.org/1999/xlink" x="0px" y="0px"
	 width="597.642px" height="197.828px" viewBox="0 0 597.642 197.828" enable-background="new 0 0 597.642 197.828"
	 xml:space="preserve">
<path fill="#148148" d="M170.733,90.265L14.902,0.294c-0.927-0.482-1.673-0.377-2.875,0.35l0.036-0.032L0.968,7.018
	C0.243,7.523,0.044,8.287,0,8.64v179.781l0.008-0.049c-0.034,1.217,0.266,1.873,1.229,2.479l11.607,6.702
	c0.836,0.361,1.289,0.307,2.093-0.137l155.891-89.909c0.838-0.533,1.128-1.21,1.132-2.514V92.212
	C171.931,91.827,171.655,90.751,170.733,90.265z M105.84,83.72l26.405,15.246l-26.408,15.246L105.84,83.72z M26.761,129.23
	l26.351,15.205l-26.351,15.214V129.23z M53.113,53.277L26.783,68.5V38.076L53.113,53.277z M27.704,98.859l51.354-29.65v59.3
	L27.704,98.859z"/>
<path opacity="0.2" fill="#000" d="M66.124,136.923l-12.955,7.545l-39.413-22.743l-0.119,76.039c-0.304,0.006-0.483-0.076-0.793-0.211
	l-11.607-6.701c-0.963-0.605-1.263-1.262-1.229-2.479L0,188.422V98.747L66.124,136.923z M171.622,91.248l-65.787,37.901
	l0.005-45.478l-13.028-7.473l-0.023,76.294l78.04-44.985c0.838-0.533,1.128-1.21,1.132-2.515v-12.78
	C171.929,91.791,171.797,91.549,171.622,91.248z M14.902,0.294c-0.927-0.482-1.673-0.377-2.875,0.35l0.036-0.032L0.968,7.018
	c-0.299,0.215-0.524,0.447-0.682,0.72l65.841,38.014L26.754,68.517l0.029,14.988L92.907,45.33L14.902,0.294z"/>
<path opacity="0.2" fill="#FFF" d="M171.698,91.228l-65.863,37.921l0.002-14.937l39.433-22.767L79.147,53.271l13.753-7.941
	l77.832,44.936C171.196,90.554,171.505,90.86,171.698,91.228z M0.287,7.738C0.139,7.995,0.044,8.287,0,8.64v90.106l13.755,7.976
	l0-76.17l39.447,22.727l12.926-7.528L0.287,7.738z M26.668,174.783l0.092-45.553l-13.005-7.505l-0.11,76.103
	c0.37-0.006,0.756-0.121,1.199-0.338l77.949-45.001v-15.882L26.668,174.783z"/>
<path fill="#148148" d="M247.733,42.476c15.273,0,26.311,4.839,36.594,14.063c1.361,1.21,1.361,3.024,0.151,4.234l-9.223,9.527
	c-1.059,1.209-2.571,1.209-3.781,0c-6.351-5.596-14.819-8.922-23.287-8.922c-45.042,2.057-45.126,68.724,0.151,70.165
	c9.073,0,16.785-3.479,23.136-8.621c1.21-1.057,2.874-0.906,3.781,0l9.375,9.678c1.21,1.059,0.907,3.025-0.152,4.084
	c-10.282,9.98-23.287,14.668-36.745,14.668c-30.244,0-54.589-24.043-54.589-54.287C193.144,66.822,217.49,42.476,247.733,42.476z
	 M312.995,111.58c6.049,0,11.039,1.664,11.039,1.664c0.151-7.711-2.269-10.434-7.864-10.434c-5.595,0-13.458,1.211-16.936,2.27
	c-2.116,0.604-3.175-0.758-3.478-2.723l-1.361-7.863c-0.453-2.27,0.756-3.326,2.118-3.781c1.209-0.453,10.887-2.873,20.565-2.873
	c18.902,0,23.287,9.83,23.287,26.312v32.814c0,1.512-1.361,2.871-2.873,2.871h-5.444c-1.058,0-1.814-0.453-2.57-2.115l-1.814-4.084
	c-3.479,3.176-9.073,7.713-18.449,7.713c-12.097,0-20.414-7.863-20.414-20.717C288.8,119.898,297.57,111.58,312.995,111.58z
	 M313.297,138.498c4.839,0,9.526-4.084,10.434-5.898v-8.316c0,0-4.083-1.814-8.468-1.814
	C300.561,123.52,304.644,139.02,313.297,138.498z M349.701,46.861c0-1.512,1.36-2.874,2.872-2.874h12.702
	c1.513,0,2.874,1.361,2.874,2.874v100.105c0,1.512-1.361,2.871-2.874,2.871h-12.702c-1.512,0-2.872-1.359-2.872-2.871V46.861z
	 M381.754,46.861c0-1.512,1.361-2.874,2.873-2.874h12.702c1.513,0,2.874,1.361,2.874,2.874v100.105c0,1.512-1.361,2.871-2.874,2.871
	h-12.702c-1.512,0-2.873-1.359-2.873-2.871V46.861z M411.447,57.447c0-5.747,4.537-10.434,10.283-10.434
	c5.897,0,10.585,4.688,10.585,10.434c0,5.745-4.688,10.434-10.585,10.434C415.984,67.88,411.447,63.192,411.447,57.447z
	 M412.809,92.225c0-1.662,1.36-2.871,2.873-2.871h12.551c1.512,0,2.873,1.209,2.873,2.871v54.742c0,1.512-1.361,2.871-2.873,2.871
	h-12.551c-1.512,0-2.873-1.359-2.873-2.871V92.225z M441.386,142.58l4.083-8.166c0.605-1.512,2.117-1.814,3.479-1.059
	c0,0,6.804,3.631,13.76,3.631c3.025,0,5.142-1.211,5.142-3.781c0-2.723-2.117-4.385-10.131-7.561
	c-11.644-4.537-17.087-10.736-17.087-19.961s6.804-17.843,22.229-17.843c8.922,0,15.424,2.572,18.6,4.687
	c1.361,0.908,2.118,2.572,1.361,4.084l-3.78,7.711c-0.756,1.361-2.42,1.514-3.629,1.059c0,0-6.805-3.176-12.551-3.176
	c-3.629,0-5.141,1.514-5.141,3.479c0,2.723,2.722,3.629,8.317,5.896c11.644,4.537,20.414,9.527,20.414,21.322
	c0,9.98-8.77,18.449-24.043,18.449c-9.98,0-16.936-3.176-20.111-5.596C441.386,145,440.781,143.791,441.386,142.58z M497.634,105.23
	h-5.142c-1.512,0-2.721-1.361-2.721-2.873V92.225c0-1.662,1.209-2.871,2.721-2.871h5.142V72.568c0-1.512,1.361-2.874,2.873-2.874
	l12.4-0.149c1.512,0,2.722,1.359,2.722,2.872v16.937h13.307c1.663,0,2.873,1.209,2.873,2.871v10.133
	c0,1.512-1.209,2.873-2.873,2.873h-13.307v24.193c0,4.234,2.269,4.84,4.688,4.84c2.57,0,5.746-1.059,7.409-1.664
	c1.663-0.604,2.873,0.152,3.327,1.664l3.024,9.527c0.604,1.512-0.152,3.023-1.663,3.629c-0.756,0.453-10.585,3.932-17.995,3.932
	c-11.644,0-16.785-7.26-16.785-19.508V105.23z M566.642,87.84c17.088,0,31,14.517,31,31.605c0,17.389-13.912,31.906-31,31.906
	c-17.087,0-30.999-14.518-30.999-31.906C535.644,102.357,549.555,87.84,566.642,87.84z M566.642,135.02
	c8.015,0,14.517-6.955,14.517-15.574c0-8.469-6.502-15.273-14.517-15.273c-8.166,0-14.517,6.805-14.517,15.273
	C552.125,128.064,558.477,135.02,566.642,135.02z"/>
</svg>
