<svg xmlns="http://www.w3.org/2000/svg" viewBox="0 0 299.1 99"><path fill="#148148" d="M85.4 45.2L7.4.2C7-.2 6.7 0 6 .2L.5 3.5c-.4.3-.5.6-.5.8v90c0 .6.1 1 .6 1.2L6.4 99c.4.1.7.1 1-.1l78-45c.5-.3.7-.6.7-1.3v-6.4c0-.1-.2-.7-.7-1zM53 41.9l13.2 7.6L53 57.2V41.9zM13.4 64.7l13.2 7.6-13.2 7.6V64.7zm13.2-38l-13.2 7.6V19l13.2 7.6zM13.9 49.5l25.7-14.9v29.7L13.9 49.5z"/><path opacity=".2" d="M33 68.5l-6.4 3.8L7 60.9v38h-.5L.6 95.5c-.5-.3-.6-.6-.6-1.2V49.4l33 19.1zM86 45.7l-33 19V41.8L46.5 38v38.2l39-22.5c.5-.3.7-.6.7-1.3v-6.4l-.2-.4zM7.5 0C7 0 6.6 0 6 .3L.5 3.5 0 4l33 19-19.7 11.4v7.5l33-19.1L7.5 0z"/><path opacity=".2" fill="#FFF" d="M86 45.7l-33 19v-7.5l19.7-11.4-33-19.1 6.8-4 39 22.5.4.5zM0 3.9l-.1.4v45.1l6.9 4V15.3l19.7 11.4 6.5-3.8-33-19zm13.2 83.6V64.7L7 60.9V99c.1 0 .3 0 .5-.2l39-22.5v-8l-33 19.2z"/><path fill="#148148" d="M124 21.3c7.6 0 13.1 2.4 18.3 7 .7.6.7 1.5 0 2.1l-4.6 4.8c-.5.6-1.2.6-1.8 0a17.9 17.9 0 0 0-11.7-4.5c-22.5 1-22.6 34.4 0 35.1 4.6 0 8.5-1.7 11.7-4.3.6-.5 1.4-.4 1.8 0l4.7 4.9c.6.5.5 1.5 0 2a27.1 27.1 0 0 1-45.7-19.8A27.3 27.3 0 0 1 124 21.3zm32.6 34.5c3 0 5.6.9 5.6.9 0-3.9-1.2-5.3-4-5.3s-6.7.7-8.5 1.2c-1 .3-1.5-.4-1.7-1.4l-.7-4c-.2-1 .4-1.6 1-1.8.7-.2 5.5-1.4 10.4-1.4 9.4 0 11.6 4.9 11.6 13.1v16.4c0 .8-.7 1.5-1.4 1.5h-2.7c-.6 0-1-.2-1.3-1l-1-2.1a13 13 0 0 1-9.2 3.8c-6 0-10.2-3.9-10.2-10.3 0-5.4 4.4-9.6 12.1-9.6zm.2 13.5a7 7 0 0 0 5.2-3v-4.1s-2-1-4.2-1c-7.4.6-5.3 8.4-1 8.1zM175 23.5c0-.8.7-1.5 1.4-1.5h6.4c.8 0 1.4.7 1.4 1.5v50c0 .8-.6 1.5-1.4 1.5h-6.4c-.7 0-1.4-.7-1.4-1.5v-50zm16 0c0-.8.7-1.5 1.5-1.5h6.3c.8 0 1.5.7 1.5 1.5v50c0 .8-.7 1.5-1.5 1.5h-6.3c-.8 0-1.5-.7-1.5-1.5v-50zm14.9 5.2c0-2.8 2.3-5.2 5.1-5.2 3 0 5.3 2.4 5.3 5.2 0 3-2.3 5.3-5.3 5.3a5.2 5.2 0 0 1-5.1-5.3zm.7 17.5c0-.9.7-1.5 1.4-1.5h6.3c.8 0 1.4.6 1.4 1.5v27.3c0 .8-.6 1.5-1.4 1.5H208c-.7 0-1.4-.7-1.4-1.5V46.2zm14.3 25.2l2-4.1c.3-.8 1-1 1.8-.6 0 0 3.4 1.9 6.9 1.9 1.5 0 2.5-.7 2.5-2s-1-2.1-5-3.7c-5.9-2.3-8.6-5.4-8.6-10s3.4-9 11.1-9c4.5 0 7.8 1.3 9.3 2.4.7.5 1.1 1.3.7 2l-1.9 4c-.3.6-1.2.7-1.8.4 0 0-3.4-1.6-6.3-1.6-1.8 0-2.5.8-2.5 1.8 0 1.4 1.3 1.8 4.1 3 5.8 2.2 10.2 4.7 10.2 10.6 0 5-4.4 9.2-12 9.2-5 0-8.5-1.5-10-2.8-.5-.3-.8-1-.5-1.5zM249 52.7h-2.5c-.8 0-1.4-.7-1.4-1.5v-5c0-.9.6-1.5 1.4-1.5h2.5v-8.4c0-.7.7-1.4 1.5-1.4l6.2-.1c.7 0 1.3.7 1.3 1.4v8.5h6.7c.8 0 1.4.6 1.4 1.5v5c0 .8-.6 1.5-1.4 1.5H258v12c0 2.2 1.2 2.5 2.4 2.5 1.3 0 2.9-.5 3.7-.8.8-.3 1.4 0 1.7.8l1.5 4.8c.3.7-.1 1.5-.9 1.8-.3.2-5.3 2-9 2-5.8 0-8.4-3.7-8.4-9.8V52.7zm34.6-8.7c8.5 0 15.5 7.2 15.5 15.8 0 8.7-7 16-15.5 16-8.6 0-15.5-7.3-15.5-16 0-8.6 7-15.8 15.5-15.8zm0 23.6c4 0 7.2-3.5 7.2-7.8s-3.2-7.7-7.2-7.7c-4.1 0-7.3 3.4-7.3 7.7 0 4.3 3.2 7.8 7.3 7.8z"/></svg>