<svg xmlns="http://www.w3.org/2000/svg" viewBox="0 0 86.1 99"><path fill="#148148" d="M85.4 45.2L7.4.2C7-.2 6.7 0 6 .2L.5 3.5c-.4.3-.5.6-.5.8v90c0 .6.1 1 .6 1.2L6.4 99c.4.1.7.1 1-.1l78-45c.5-.3.7-.6.7-1.3v-6.4c0-.1-.2-.7-.7-1zM53 41.9l13.2 7.6L53 57.2V41.9zM13.4 64.7l13.2 7.6-13.2 7.6V64.7zm13.2-38l-13.2 7.6V19l13.2 7.6zM13.9 49.5l25.7-14.9v29.7L13.9 49.5z"/><path opacity=".2" d="M33 68.5l-6.4 3.8L7 60.9v38h-.5L.6 95.5c-.5-.3-.6-.6-.6-1.2V49.4l33 19.1zM86 45.7l-33 19V41.8L46.5 38v38.2l39-22.5c.5-.3.7-.6.7-1.3v-6.4l-.2-.4zM7.5 0C7 0 6.6 0 6 .3L.5 3.5 0 4l33 19-19.7 11.4v7.5l33-19.1L7.5 0z"/><path opacity=".2" fill="#FFF" d="M86 45.7l-33 19v-7.5l19.7-11.4-33-19.1 6.8-4 39 22.5.4.5zM0 3.9l-.1.4v45.1l6.9 4V15.3l19.7 11.4 6.5-3.8-33-19zm13.2 83.6V64.7L7 60.9V99c.1 0 .3 0 .5-.2l39-22.5v-8l-33 19.2z"/></svg>